<svg xmlns="http://www.w3.org/2000/svg" viewBox="0 0 50 50" enable-background="new 0 0 50 50">
    <path style="text-indent:0;text-align:start;line-height:normal;text-transform:none;block-progression:tb;-inkscape-font-specification:Bitstream Vera Sans" d="M 25 8 C 19.805134 8 12.253196 8.8078667 9.71875 9.375 C 7.78683 9.8075008 6.3199214 11.347335 6.03125 13.25 L 5.0625 19.65625 C 4.6335192 22.483681 6.9788818 25 9.90625 25 L 19.34375 25 C 19.933956 25 20.673237 25.370125 21.59375 25.875 C 22.514263 26.379875 23.614922 27 25 27 C 26.385078 27 27.506012 26.381037 28.4375 25.875 C 29.368988 25.368963 30.114655 25 30.65625 25 L 40.09375 25 C 43.021884 25 45.366436 22.48339 44.9375 19.65625 L 43.96875 13.25 C 43.680079 11.347335 42.21317 9.8075008 40.28125 9.375 C 37.746804 8.8078667 30.194866 8 25 8 z M 25 10 C 29.975134 10 37.784196 10.851633 39.84375 11.3125 C 41.01183 11.573999 41.838671 12.467915 42 13.53125 L 42.96875 19.96875 C 43.209814 21.55761 41.911616 23 40.09375 23 L 32 23 C 31.536362 23 31.166616 22.812964 30.71875 22.4375 C 30.270884 22.062036 29.812985 21.500842 29.3125 20.875 C 28.812015 20.249158 28.272246 19.56215 27.59375 19 C 26.915254 18.43785 26.032209 18 25 18 C 23.967791 18 23.084322 18.437736 22.40625 19 C 21.728178 19.562264 21.187534 20.249253 20.6875 20.875 C 20.187466 21.500747 19.729187 22.062165 19.28125 22.4375 C 18.833313 22.812835 18.465702 23 18 23 L 9.90625 23 C 8.0896182 23 6.7902308 21.557319 7.03125 19.96875 L 8 13.53125 C 8.1613286 12.467915 8.98817 11.573999 10.15625 11.3125 C 12.215804 10.851633 20.024866 10 25 10 z M 25 20 C 25.481791 20 25.859465 20.18715 26.3125 20.5625 C 26.765535 20.93785 27.25086 21.500842 27.75 22.125 C 28.089972 22.550124 28.444094 23.012878 28.84375 23.4375 C 28.359101 23.64994 27.894117 23.893917 27.46875 24.125 C 26.559488 24.618963 25.764922 25 25 25 C 24.235078 25 23.433987 24.620125 22.53125 24.125 C 22.098689 23.887753 21.652549 23.621253 21.15625 23.40625 C 21.549442 22.986424 21.914675 22.544629 22.25 22.125 C 22.748841 21.500747 23.234978 20.937736 23.6875 20.5625 C 24.140022 20.187264 24.518209 20 25 20 z M 25 29 C 21.698375 29 19 31.698375 19 35 C 19 38.301625 21.698375 41 25 41 C 28.301625 41 31 38.301625 31 35 C 31 31.698375 28.301625 29 25 29 z M 25 31 C 27.220375 31 29 32.779625 29 35 C 29 37.220375 27.220375 39 25 39 C 22.779625 39 21 37.220375 21 35 C 21 32.779625 22.779625 31 25 31 z M 25 33 C 23.896 33 23 33.895 23 35 C 23 36.105 23.896 37 25 37 C 26.104 37 27 36.105 27 35 C 27 33.895 26.104 33 25 33 z M 32 34 L 32 36 L 35 36 C 38.877484 36 42 39.122516 42 43 L 44 43 C 44 38.041484 39.958516 34 35 34 L 32 34 z" color="#3498db" overflow="visible" enable-background="accumulate" font-family="Bitstream Vera Sans"></path>
</svg>
